<svg height="512pt" viewBox="0 -16 512 512" width="512pt" xmlns="http://www.w3.org/2000/svg"><path d="m502 10v20c0 11.050781-8.949219 20-20 20-22.53125 0-429.386719 0-452 0-11.050781 0-20-8.949219-20-20v-20zm0 0" fill="#50536e"/><path d="m356 190c11.050781 0 20 8.949219 20 20 0 11.039062-8.960938 20-20 20h-220c-11.050781 0-20-8.949219-20-20 0-11.039062 8.960938-20 20-20zm0 0" fill="#d9e7ec"/><path d="m356 110c0 11.050781-8.949219 20-20 20-13.890625 0-123.792969 0-160 0-11.050781 0-20-8.949219-20-20v-60h200zm0 0" fill="#d9e7ec"/><path d="m216 130h80v60h-80zm0 0" fill="#ff663b"/><path d="m421 446.511719c4.78125-2.773438 6.421875-8.882813 3.660156-13.660157-2.761718-4.792968-8.878906-6.429687-13.660156-3.660156-4.78125 2.757813-6.421875 8.867188-3.660156 13.660156 2.761718 4.777344 8.878906 6.417969 13.660156 3.660157zm0 0"/><path d="m391 394.539062c4.78125-2.757812 6.421875-8.867187 3.660156-13.660156-2.761718-4.777344-8.878906-6.417968-13.660156-3.660156-4.78125 2.769531-6.421875 8.882812-3.660156 13.660156 2.761718 4.792969 8.878906 6.429688 13.660156 3.660156zm0 0"/><path d="m361 342.578125c4.78125-2.757813 6.421875-8.867187 3.660156-13.65625-2.761718-4.78125-8.878906-6.421875-13.660156-3.660156-4.78125 2.757812-6.421875 8.878906-3.660156 13.660156 2.761718 4.789063 8.878906 6.417969 13.660156 3.65625zm0 0"/><path d="m334.652344 276.957031c-2.761719-4.78125-8.878906-6.421875-13.660156-3.660156-4.785157 2.761719-6.421876 8.878906-3.660157 13.660156 2.761719 4.785157 8.875 6.421875 13.660157 3.660157 4.78125-2.761719 6.417968-8.875 3.660156-13.660157zm0 0"/><path d="m266 290c0 5.523438-4.476562 10-10 10s-10-4.476562-10-10 4.476562-10 10-10 10 4.476562 10 10zm0 0"/><path d="m266 350c0 5.523438-4.476562 10-10 10s-10-4.476562-10-10 4.476562-10 10-10 10 4.476562 10 10zm0 0"/><path d="m266 410c0 5.523438-4.476562 10-10 10s-10-4.476562-10-10 4.476562-10 10-10 10 4.476562 10 10zm0 0"/><path d="m266 470c0 5.523438-4.476562 10-10 10s-10-4.476562-10-10 4.476562-10 10-10 10 4.476562 10 10zm0 0"/><path d="m206 90c0 5.523438-4.476562 10-10 10s-10-4.476562-10-10 4.476562-10 10-10 10 4.476562 10 10zm0 0"/><path d="m190.992188 273.296875c-4.78125-2.757813-10.898438-1.121094-13.660157 3.660156-2.761719 4.785157-1.121093 10.898438 3.660157 13.660157 4.78125 2.761718 10.898437 1.125 13.660156-3.660157 2.761718-4.78125 1.121094-10.898437-3.660156-13.660156zm0 0"/><path d="m164.660156 338.921875c2.761719-4.78125 1.121094-10.902344-3.660156-13.660156-4.78125-2.761719-10.898438-1.121094-13.660156 3.660156-2.761719 4.789063-1.121094 10.898437 3.660156 13.65625 4.78125 2.761719 10.898438 1.132813 13.660156-3.65625zm0 0"/><path d="m134.660156 390.878906c2.761719-4.777344 1.121094-10.890625-3.660156-13.660156-4.78125-2.757812-10.898438-1.117188-13.660156 3.660156-2.761719 4.792969-1.121094 10.902344 3.660156 13.660156 4.78125 2.769532 10.898438 1.132813 13.660156-3.660156zm0 0"/><path d="m104.660156 442.851562c2.761719-4.792968 1.121094-10.902343-3.660156-13.660156-4.78125-2.769531-10.898438-1.132812-13.660156 3.660156-2.761719 4.777344-1.121094 10.886719 3.660156 13.660157 4.78125 2.757812 10.898438 1.117187 13.660156-3.660157zm0 0"/><path d="m502 0h-492c-5.523438 0-10 4.476562-10 10v20c0 16.542969 13.457031 30 30 30h116v50c0 16.542969 13.457031 30 30 30h30v40h-70c-16.574219 0-30 13.425781-30 30 0 16.542969 13.457031 30 30 30h220c16.574219 0 30-13.425781 30-30 0-16.542969-13.457031-30-30-30h-50v-40h30c16.542969 0 30-13.457031 30-30v-50h116c16.542969 0 30-13.457031 30-30v-20c0-5.523438-4.476562-10-10-10zm-136 210c0 5.519531-4.476562 10-10 10h-220c-5.515625 0-10-4.484375-10-10 0-5.519531 4.476562-10 10-10h220c5.515625 0 10 4.484375 10 10zm-80-30h-60v-40h60zm60-100h-110c-5.523438 0-10 4.476562-10 10s4.476562 10 10 10h110v10c0 5.515625-4.484375 10-10 10h-160c-5.515625 0-10-4.484375-10-10v-50h180zm146-50c0 5.515625-4.484375 10-10 10h-452c-5.515625 0-10-4.484375-10-10v-10h472zm0 0"/></svg>