<?xml version="1.0" encoding="utf-8"?>
<!-- Generator: Adobe Illustrator 21.0.0, SVG Export Plug-In . SVG Version: 6.00 Build 0)  -->
<svg xmlns="http://www.w3.org/2000/svg" xmlns:xlink="http://www.w3.org/1999/xlink" version="1.1" id="Layer_1" x="0px" y="0px" viewBox="0 0 64 64" style="enable-background:new 0 0 64 64;" xml:space="preserve" width="512" height="512">
<style type="text/css">
	.st0{fill:#B6DEDC;}
	.st1{fill:#EC322C;}
	.st2{fill:#344496;}
	.st3{fill:#FCD821;}
	.st4{fill:#4BAD32;}
</style>
<g>
	<path class="st0" d="M49.7,9c0.1,1-0.7,1.9-1.7,2l3.5,2l4.3,2c2.9,0,5.2-2.7,5.2-6s-2.3-6-5.2-6l-4.3,2L48,7C49,7.1,49.8,8,49.7,9z   "/>
	<path class="st0" d="M47.3,9C47.2,8,48,7.1,49,7l-3.5-2l-4.3-2C38.3,3,36,5.7,36,9s2.3,6,5.2,6l4.3-2l3.5-2C48,10.9,47.2,10,47.3,9   z"/>
	<path class="st0" d="M16.7,9c0.1,1-0.7,1.9-1.7,2l3.5,2l4.3,2c2.9,0,5.2-2.7,5.2-6s-2.3-6-5.2-6l-4.3,2L15,7C16,7.1,16.8,8,16.7,9z   "/>
	<path class="st0" d="M14.3,9C14.2,8,15,7.1,16,7l-3.5-2L8.2,3C5.3,3,3,5.7,3,9s2.3,6,5.2,6l4.3-2l3.5-2C15,10.9,14.2,10,14.3,9z"/>
	<circle class="st0" cx="49" cy="32" r="9"/>
	<circle class="st0" cx="15" cy="32" r="9"/>
	<circle class="st1" cx="15" cy="9" r="2"/>
	<circle class="st1" cx="49" cy="9" r="2"/>
	<path class="st2" d="M49,41L49,41c6.6,0,12,5.4,12,12v8l0,0H37l0,0v-8C37,46.4,42.4,41,49,41z"/>
	<path class="st3" d="M15,41L15,41c6.6,0,12,5.4,12,12v8l0,0H3l0,0v-8C3,46.4,8.4,41,15,41z"/>
	<path class="st4" d="M14,26H8.3c-2.7,3.1-3.1,7.6-0.8,11H12c1.1,0,2-0.9,2-2s-0.9-2-2-2h-0.5c-0.8,0-1.5-0.7-1.5-1.5   s0.7-1.5,1.5-1.5H14c1.1,0,2-0.9,2-2S15.1,26,14,26z"/>
	<path class="st4" d="M24,32c0-1-0.2-2-0.5-3h-2.8c-0.9,0-1.7,0.8-1.7,1.7c0,0,0,0,0,0V32h1v1.5c0,0.8-0.7,1.5-1.5,1.5   S17,35.7,17,36.5s0.7,1.5,1.5,1.5h3.2C23.2,36.4,24,34.2,24,32z"/>
	<path class="st1" d="M15,23c1,0,2,0.2,2.9,0.5L15,11l-2.9,12.5C13,23.2,14,23,15,23z"/>
	<path class="st4" d="M48,26h-5.7c-2.7,3.1-3.1,7.6-0.8,11H46c1.1,0,2-0.9,2-2s-0.9-2-2-2h-0.5c-0.8,0-1.5-0.7-1.5-1.5   s0.7-1.5,1.5-1.5H48c1.1,0,2-0.9,2-2S49.1,26,48,26z"/>
	<path class="st4" d="M58,32c0-1-0.2-2-0.5-3h-2.8c-0.9,0-1.7,0.8-1.7,1.7c0,0,0,0,0,0V32h1v1.5c0,0.8-0.7,1.5-1.5,1.5   S51,35.7,51,36.5s0.7,1.5,1.5,1.5h3.2C57.2,36.4,58,34.2,58,32z"/>
	<path class="st1" d="M49,23c1,0,2,0.2,2.9,0.5L49,11l-2.9,12.5C47,23.2,48,23,49,23z"/>
	<path d="M21,16v-2c2.8,0,5-2.2,5-5s-2.2-5-5-5V2c3.9,0,7,3.1,7,7S24.9,16,21,16z"/>
	<path d="M9,16c-3.9,0-7-3.1-7-7s3.1-7,7-7v2C6.2,4,4,6.2,4,9s2.2,5,5,5V16z"/>
	<path d="M18,14v-2c1.7,0,3-1.3,3-3s-1.3-3-3-3V4c2.8,0,5,2.2,5,5S20.8,14,18,14z"/>
	<path d="M12,14c-2.8,0-5-2.2-5-5s2.2-5,5-5v2c-1.7,0-3,1.3-3,3s1.3,3,3,3V14z"/>
	<path d="M55,16v-2c2.8,0,5-2.2,5-5s-2.2-5-5-5V2c3.9,0,7,3.1,7,7S58.9,16,55,16z"/>
	<path d="M43,16c-3.9,0-7-3.1-7-7s3.1-7,7-7v2c-2.8,0-5,2.2-5,5s2.2,5,5,5V16z"/>
	<path d="M52,14v-2c1.7,0,3-1.3,3-3s-1.3-3-3-3V4c2.8,0,5,2.2,5,5S54.8,14,52,14z"/>
	<path d="M46,14c-2.8,0-5-2.2-5-5s2.2-5,5-5v2c-1.7,0-3,1.3-3,3s1.3,3,3,3V14z"/>
	<path d="M19.6,40.9c4.9-2.5,6.8-8.6,4.3-13.5c-1.1-2.1-2.9-3.8-5.1-4.7l-2.5-11c1.5-0.7,2.2-2.4,1.6-3.9s-2.4-2.2-3.9-1.6   s-2.2,2.4-1.6,3.9c0.3,0.7,0.9,1.2,1.6,1.6l-2.5,11c-5.1,2.1-7.6,7.9-5.5,13c0.9,2.2,2.5,4,4.7,5.1C5.3,42.8,2,47.6,2,53v8   c0,0.6,0.4,1,1,1c0,0,0,0,0,0h24c0.6,0,1-0.4,1-1c0,0,0,0,0,0v-8C28,47.6,24.7,42.8,19.6,40.9z M23,32c0,1.8-0.6,3.6-1.8,5h-2.7   c-0.3,0-0.5-0.2-0.5-0.5s0.2-0.5,0.5-0.5c1.4,0,2.5-1.1,2.5-2.5V32c0-0.6-0.4-1-1-1c0,0,0,0,0,0v-0.3c0-0.4,0.3-0.7,0.7-0.7h2.1   C22.9,30.7,23,31.3,23,32z M15,8c0.6,0,1,0.4,1,1s-0.4,1-1,1s-1-0.4-1-1C14,8.4,14.4,8,15,8z M15,15.4l1.5,6.7   c-1-0.2-2.1-0.2-3.1,0L15,15.4z M7,32c0-1.8,0.6-3.6,1.8-5h5.7c0.3,0,0.5,0.2,0.5,0.5v1c0,0.3-0.2,0.5-0.5,0.5h-3   C10.1,29,9,30.1,9,31.5c0,1.4,1.1,2.5,2.5,2.5h1c0.3,0,0.5,0.2,0.5,0.5v1c0,0.3-0.2,0.5-0.5,0.5H8.1C7.4,34.8,7,33.4,7,32z M9.7,38   h2.8c1.4,0,2.5-1.1,2.5-2.5v-1c0-1.4-1.1-2.5-2.5-2.5h-1c-0.3,0-0.5-0.2-0.5-0.5s0.2-0.5,0.5-0.5h3c1.4,0,2.5-1.1,2.5-2.5v-1   c0-1.4-1.1-2.5-2.5-2.5h-3.4c3.8-2.1,8.6-0.8,10.8,3h-1.2c-1.5,0-2.7,1.2-2.7,2.7V32c0,0.6,0.4,1,1,1c0,0,0,0,0,0v0.5   c0,0.3-0.2,0.5-0.5,0.5c-1.4,0-2.5,1.1-2.5,2.5s1.1,2.5,2.5,2.5h0.4C15.9,40.6,12.3,40.2,9.7,38z M26,60H4v-7c0-6.1,4.9-11,11-11   s11,4.9,11,11V60z"/>
	<path d="M53.6,40.9c4.9-2.5,6.8-8.6,4.3-13.5c-1.1-2.1-2.9-3.8-5.1-4.7l-2.5-11c1.5-0.7,2.2-2.4,1.6-3.9c-0.7-1.5-2.4-2.2-3.9-1.6   s-2.2,2.4-1.6,3.9c0.3,0.7,0.9,1.2,1.6,1.6l-2.5,11c-5.1,2.1-7.6,7.9-5.5,13c0.9,2.2,2.5,4,4.7,5.1c-5,1.9-8.4,6.7-8.4,12.1v8   c0,0.6,0.4,1,1,1c0,0,0,0,0,0h24c0.6,0,1-0.4,1-1c0,0,0,0,0,0v-8C62,47.6,58.7,42.8,53.6,40.9z M55.2,37h-2.7   c-0.3,0-0.5-0.2-0.5-0.5s0.2-0.5,0.5-0.5c1.4,0,2.5-1.1,2.5-2.5V32c0-0.6-0.4-1-1-1c0,0,0,0,0,0v-0.3c0-0.4,0.3-0.7,0.7-0.7h2.1   C57.4,32.4,56.8,35,55.2,37z M49,8c0.6,0,1,0.4,1,1s-0.4,1-1,1s-1-0.4-1-1C48,8.4,48.4,8,49,8z M49,15.4l1.5,6.7   c-1-0.2-2.1-0.2-3.1,0L49,15.4z M42.8,27h5.7c0.3,0,0.5,0.2,0.5,0.5v1c0,0.3-0.2,0.5-0.5,0.5h-3c-1.4,0-2.5,1.1-2.5,2.5   c0,1.4,1.1,2.5,2.5,2.5h1c0.3,0,0.5,0.2,0.5,0.5v1c0,0.3-0.2,0.5-0.5,0.5h-4.4C40.4,33.1,40.7,29.6,42.8,27L42.8,27z M43.7,38h2.8   c1.4,0,2.5-1.1,2.5-2.5v-1c0-1.4-1.1-2.5-2.5-2.5h-1c-0.3,0-0.5-0.2-0.5-0.5s0.2-0.5,0.5-0.5h3c1.4,0,2.5-1.1,2.5-2.5v-1   c0-1.4-1.1-2.5-2.5-2.5h-3.4c3.8-2.1,8.6-0.8,10.8,3h-1.2c-1.5,0-2.7,1.2-2.7,2.7V32c0,0.6,0.4,1,1,1c0,0,0,0,0,0v0.5   c0,0.3-0.2,0.5-0.5,0.5c-1.4,0-2.5,1.1-2.5,2.5s1.1,2.5,2.5,2.5h0.4C49.9,40.6,46.3,40.2,43.7,38L43.7,38z M60,60H38v-7   c0-6.1,4.9-11,11-11s11,4.9,11,11V60z"/>
</g>
</svg>
